# xmcd
#
# Track frame offsets:
#	150
#	14597
#	39260
#	58840
#	76647
#	96135
#	111687
#	125772
#	147960
#
# Disc length: 2141 seconds
#
# Revision: 0
# Processed by: cddbd v1.4PL0 Copyright (c) Steve Scherf et al.
# Submitted via: EasyCDDAExtractor 4.6.0.1
#
DISCID=7a085b09
DTITLE=David Holland - The Puzzle
DYEAR=1996
DGENRE=Country
TTITLE0=Tonite We Rock
TTITLE1=The Puzzle
TTITLE2=Las Vegas Lady
TTITLE3=A Broken Mirror
TTITLE4=Here Kitty Kitty
TTITLE5=After All
TTITLE6=The Outlaw In Me
TTITLE7=I Wasn't Ready
TTITLE8=Last Call For Love
EXTD=
EXTT0=
EXTT1=
EXTT2=
EXTT3=
EXTT4=
EXTT5=
EXTT6=
EXTT7=
EXTT8=
PLAYORDER=
